<svg xmlns="http://www.w3.org/2000/svg" xmlns:xlink="http://www.w3.org/1999/xlink" width="500" zoomAndPan="magnify" viewBox="0 0 375 374.999991" height="500" preserveAspectRatio="xMidYMid meet" version="1.0"><defs><g/></defs><g fill="#ffffff" fill-opacity="1"><g transform="translate(-19.681964, 285.60012)"><g><path d="M 93.734375 -170.828125 C 97.953125 -170.828125 101.894531 -170.050781 105.5625 -168.5 C 109.226562 -166.945312 112.390625 -164.8125 115.046875 -162.09375 C 117.710938 -159.375 119.820312 -156.179688 121.375 -152.515625 C 122.9375 -148.847656 123.71875 -144.960938 123.71875 -140.859375 C 123.71875 -136.640625 122.9375 -132.695312 121.375 -129.03125 C 119.820312 -125.375 117.710938 -122.210938 115.046875 -119.546875 C 112.390625 -116.878906 109.226562 -114.769531 105.5625 -113.21875 C 101.894531 -111.664062 97.953125 -110.890625 93.734375 -110.890625 C 89.523438 -110.890625 85.613281 -111.664062 82 -113.21875 C 78.394531 -114.769531 75.234375 -116.878906 72.515625 -119.546875 C 69.796875 -122.210938 67.65625 -125.375 66.09375 -129.03125 C 64.539062 -132.695312 63.765625 -136.640625 63.765625 -140.859375 C 63.765625 -144.960938 64.539062 -148.847656 66.09375 -152.515625 C 67.65625 -156.179688 69.796875 -159.375 72.515625 -162.09375 C 75.234375 -164.8125 78.394531 -166.945312 82 -168.5 C 85.613281 -170.050781 89.523438 -170.828125 93.734375 -170.828125 Z M 93.734375 -56.109375 C 97.953125 -56.109375 101.894531 -55.332031 105.5625 -53.78125 C 109.226562 -52.226562 112.390625 -50.117188 115.046875 -47.453125 C 117.710938 -44.785156 119.820312 -41.617188 121.375 -37.953125 C 122.9375 -34.296875 123.71875 -30.414062 123.71875 -26.3125 C 123.71875 -22.09375 122.9375 -18.148438 121.375 -14.484375 C 119.820312 -10.816406 117.710938 -7.625 115.046875 -4.90625 C 112.390625 -2.1875 109.226562 -0.0507812 105.5625 1.5 C 101.894531 3.050781 97.953125 3.828125 93.734375 3.828125 C 89.523438 3.828125 85.613281 3.050781 82 1.5 C 78.394531 -0.0507812 75.234375 -2.1875 72.515625 -4.90625 C 69.796875 -7.625 67.65625 -10.816406 66.09375 -14.484375 C 64.539062 -18.148438 63.765625 -22.09375 63.765625 -26.3125 C 63.765625 -30.414062 64.539062 -34.296875 66.09375 -37.953125 C 67.65625 -41.617188 69.796875 -44.785156 72.515625 -47.453125 C 75.234375 -50.117188 78.394531 -52.226562 82 -53.78125 C 85.613281 -55.332031 89.523438 -56.109375 93.734375 -56.109375 Z M 93.734375 -56.109375 "/></g></g></g><g fill="#ffffff" fill-opacity="1"><g transform="translate(167.791395, 285.60012)"><g><path d="M 173.5 -148.359375 C 173.5 -137.035156 171.609375 -126.570312 167.828125 -116.96875 C 164.054688 -107.363281 158.453125 -99.066406 151.015625 -92.078125 C 143.578125 -85.085938 134.304688 -79.648438 123.203125 -75.765625 C 112.109375 -71.878906 99.234375 -69.9375 84.578125 -69.9375 L 63.765625 -69.9375 L 63.765625 0 L 22.484375 0 L 22.484375 -217.625 L 86.25 -217.625 C 100.34375 -217.625 112.800781 -216.097656 123.625 -213.046875 C 134.445312 -209.992188 143.550781 -205.523438 150.9375 -199.640625 C 158.320312 -193.753906 163.925781 -186.507812 167.75 -177.90625 C 171.582031 -169.300781 173.5 -159.453125 173.5 -148.359375 Z M 130.546875 -145.53125 C 130.546875 -151.300781 129.628906 -156.539062 127.796875 -161.25 C 125.960938 -165.96875 123.1875 -169.992188 119.46875 -173.328125 C 115.75 -176.660156 111.054688 -179.210938 105.390625 -180.984375 C 99.734375 -182.765625 93.019531 -183.65625 85.25 -183.65625 L 63.765625 -183.65625 L 63.765625 -103.90625 L 86.578125 -103.90625 C 93.679688 -103.90625 99.953125 -104.875 105.390625 -106.8125 C 110.835938 -108.75 115.421875 -111.550781 119.140625 -115.21875 C 122.859375 -118.882812 125.6875 -123.269531 127.625 -128.375 C 129.570312 -133.476562 130.546875 -139.195312 130.546875 -145.53125 Z M 130.546875 -145.53125 "/></g></g></g></svg>